<svg width="240" height="256" viewBox="0 0 240 256" fill="none" xmlns="http://www.w3.org/2000/svg">
<g clip-path="url(#clip0_1_2)">
<path d="M49.5569 89.9679C48.1136 91.3668 45.6777 92.3591 42.5648 92.3591C39.4067 92.3591 37.0605 91.457 35.6163 90.0134C34.0373 88.4341 33.4963 86.178 33.4963 82.885H39.903C39.903 84.1934 39.9927 85.1408 40.5794 85.8175C40.9403 86.2236 41.5723 86.5844 42.5648 86.5844C43.5568 86.5844 44.1889 86.3138 44.5952 85.7725C45.0459 85.231 45.2261 84.3736 45.2261 83.0657C45.2261 79.9979 44.7298 79.456 42.4285 78.5087L38.3681 76.84C35.1209 75.486 33.7672 73.7716 33.7672 68.7638C33.7672 65.7861 34.7142 63.305 36.6538 61.6354C38.1888 60.3273 40.1281 59.6056 42.5648 59.6056C45.4068 59.6056 47.4819 60.3273 48.8802 61.6354C50.6402 63.26 51.3616 65.8313 51.3616 69.0799H44.9561C44.9561 67.9519 44.9561 66.9141 44.414 66.1921C44.0531 65.6959 43.5119 65.3806 42.5648 65.3806C41.6619 65.3806 41.0751 65.7414 40.7144 66.2377C40.3085 66.7786 40.1739 67.4556 40.1739 68.5384C40.1739 70.5685 40.5348 71.1552 42.3836 71.9219L46.3994 73.5462C50.4598 75.1705 51.6328 77.0202 51.6328 82.84C51.6328 86.0881 51.2262 88.3441 49.5569 89.9679Z" fill="#1A1919"/>
<path d="M64.9891 65.6513V91.9983H58.5824V65.6513H53.1685V59.8766H70.4029V65.6513H64.9891Z" fill="#1A1919"/>
<path d="M72.8854 91.9983V59.8766H87.684V65.6513H79.2919V72.9146H86.511V78.6892H79.2919V86.2237H87.684V91.9983H72.8854Z" fill="#1A1919"/>
<path d="M102.258 91.9983H95.5806L88.4073 59.8766H95.4457L98.9194 82.5693L102.438 59.8766H109.476L102.258 91.9983Z" fill="#1A1919"/>
<path d="M111.237 91.9983V59.8766H126.036V65.6513H117.643V72.9146H124.863V78.6892H117.643V86.2237H126.036V91.9983H111.237Z" fill="#1A1919"/>
<path d="M144.083 89.9679C142.64 91.3668 140.204 92.3591 137.091 92.3591C133.933 92.3591 131.587 91.457 130.143 90.0134C128.564 88.4341 128.023 86.178 128.023 82.885H134.43C134.43 84.1934 134.519 85.1408 135.106 85.8175C135.466 86.2236 136.099 86.5844 137.091 86.5844C138.083 86.5844 138.715 86.3138 139.121 85.7725C139.572 85.231 139.753 84.3736 139.753 83.0657C139.753 79.9979 139.256 79.456 136.955 78.5087L132.895 76.84C129.647 75.486 128.294 73.7716 128.294 68.7638C128.294 65.7861 129.241 63.305 131.18 61.6354C132.715 60.3273 134.655 59.6056 137.091 59.6056C139.933 59.6056 142.008 60.3273 143.406 61.6354C145.166 63.26 145.888 65.8313 145.888 69.0799H139.482C139.482 67.9519 139.482 66.9141 138.94 66.1921C138.58 65.6959 138.038 65.3806 137.091 65.3806C136.188 65.3806 135.601 65.7414 135.241 66.2377C134.835 66.7786 134.7 67.4556 134.7 68.5384C134.7 70.5685 135.061 71.1552 136.91 71.9219L140.926 73.5462C144.986 75.1705 146.159 77.0202 146.159 82.84C146.159 86.0881 145.752 88.3441 144.083 89.9679Z" fill="#1A1919"/>
<path d="M159.515 65.6513V91.9983H153.108V65.6513H147.695V59.8766H164.929V65.6513H159.515Z" fill="#1A1919"/>
<path d="M182.255 89.1563C180.766 90.9155 178.781 92.3591 175.172 92.3591C171.562 92.3591 169.669 90.9155 168.178 89.1563C165.608 86.0882 165.787 80.2685 165.787 75.9374C165.787 71.6063 165.608 65.7861 168.178 62.7182C169.669 60.9585 171.562 59.5157 175.172 59.5157C178.781 59.5157 180.766 60.9585 182.255 62.7182C184.826 65.7861 184.646 71.6063 184.646 75.9374C184.646 80.2685 184.826 86.0882 182.255 89.1563ZM177.382 66.553C177.021 65.8314 176.344 65.2904 175.172 65.2904C173.999 65.2904 173.413 65.8314 173.052 66.553C172.284 68.0421 172.194 72.0571 172.194 75.9374C172.194 79.8172 172.284 83.8327 173.052 85.3209C173.413 86.0435 173.999 86.5844 175.172 86.5844C176.344 86.5844 177.021 86.0435 177.382 85.3209C178.15 83.8327 178.239 79.8172 178.239 75.9374C178.239 72.0571 178.15 68.0421 177.382 66.553Z" fill="#1A1919"/>
<path d="M200.979 91.9983L194.167 76.2983V91.9983H187.76V59.8766H193.356L200.031 75.5766V59.8766H206.438V91.9983H200.979Z" fill="#1A1919"/>
<path d="M97.0063 202.515C95.3825 204.05 93.4422 204.817 90.7801 204.817C87.1709 204.817 85.2763 203.374 83.7874 201.614C81.2158 198.546 81.3962 192.77 81.3962 188.441C81.3962 184.109 81.2158 178.244 83.7874 175.177C85.2763 173.416 87.1709 171.973 90.7801 171.973C93.4422 171.973 95.3825 172.741 97.0063 174.273C98.6759 175.854 99.7131 178.379 99.8488 181.447H93.4422C93.3975 180.544 93.3067 179.643 92.9459 178.966C92.585 178.2 91.953 177.747 90.7801 177.747C89.6079 177.747 89.0209 178.289 88.66 179.011C87.8937 180.499 87.8021 184.515 87.8021 188.396C87.8021 192.275 87.8937 196.29 88.66 197.779C89.0209 198.501 89.6079 199.042 90.7801 199.042C91.953 199.042 92.63 198.546 92.9914 197.779C93.3522 197.102 93.4422 196.2 93.4871 195.298H99.8938C99.7584 198.365 98.6759 200.938 97.0063 202.515Z" fill="#1A1919"/>
<path d="M102.828 204.456V172.334H109.235V198.681H117.626V204.456H102.828Z" fill="#1A1919"/>
<path d="M134.908 202.155C133.194 203.915 130.937 204.817 128.23 204.817C125.524 204.817 123.268 203.915 121.553 202.155C120.02 200.576 119.163 198.411 119.163 195.84V172.334H125.568V196.154C125.568 198.231 126.787 199.042 128.23 199.042C129.674 199.042 130.892 198.231 130.892 196.154V172.334H137.299V195.84C137.299 198.411 136.441 200.576 134.908 202.155Z" fill="#1A1919"/>
<path d="M157.107 202.336C155.754 203.735 153.634 204.456 150.43 204.456H141.137V172.334H150.43C153.634 172.334 155.754 173.055 157.153 174.409C158.686 175.898 159.272 178.244 159.272 181.312C159.272 183.388 159.093 185.146 157.74 186.5C157.333 186.906 156.881 187.267 156.25 187.582C156.837 187.898 157.287 188.304 157.694 188.712C159.183 190.38 159.272 192.77 159.272 194.576C159.272 198.05 158.732 200.667 157.107 202.336ZM149.482 178.109H147.544V184.966H149.482C152.009 184.966 152.866 183.928 152.866 181.537C152.866 179.101 152.055 178.109 149.482 178.109ZM149.574 190.38H147.544V198.681H149.574C152.144 198.681 152.866 197.463 152.866 194.531C152.866 191.598 152.055 190.38 149.574 190.38Z" fill="#1A1919"/>
<path d="M67.3094 159.442L58.4986 136.993L54.3606 145.422V159.442H45.7801V104.891H54.3606V130.557L66.236 104.891H74.8938L63.9383 127.493L76.5801 159.442H67.3094Z" fill="#1A1919"/>
<path d="M77.1172 159.442V104.891H100.025V112.629H85.6985V128.106H98.0331V135.844H85.6985V151.704H100.025V159.442H77.1172Z" fill="#1A1919"/>
<path d="M124.314 159.442L111.442 127.033V159.442H102.862V104.891H110.523L123.317 137.299V104.891H131.899V159.442H124.314Z" fill="#1A1919"/>
<path d="M160.937 154.921C158.715 157.451 155.575 159.442 150.364 159.442H136.497V104.891H150.364C155.575 104.891 158.715 106.883 160.937 109.411C164.998 113.932 164.922 121.67 164.922 132.166C164.922 142.663 164.998 150.402 160.937 154.921ZM154.502 114.851C153.659 113.548 152.204 112.629 150.134 112.629H145.077V151.704H150.134C152.204 151.704 153.659 150.784 154.502 149.482C156.111 146.953 156.341 141.591 156.341 132.09C156.341 122.59 156.111 117.379 154.502 114.851Z" fill="#1A1919"/>
<path d="M191.738 155.458C189.439 158.062 186.374 160.054 181.164 160.054C175.955 160.054 172.89 158.062 170.591 155.458C166.53 150.86 166.607 142.893 166.607 132.166C166.607 121.44 166.53 113.472 170.591 108.875C172.89 106.27 175.955 104.278 181.164 104.278C186.374 104.278 189.439 106.27 191.738 108.875C195.799 113.472 195.722 121.44 195.722 132.166C195.722 142.893 195.799 150.86 191.738 155.458ZM185.301 114.085C184.536 112.859 183.233 112.016 181.164 112.016C179.096 112.016 177.871 112.859 177.104 114.085C175.494 116.69 175.188 122.206 175.188 132.166C175.188 142.126 175.494 147.643 177.104 150.247C177.871 151.474 179.096 152.317 181.164 152.317C183.233 152.317 184.536 151.474 185.301 150.247C186.911 147.643 187.141 142.126 187.141 132.166C187.141 122.206 186.911 116.69 185.301 114.085Z" fill="#1A1919"/>
<path d="M239.625 51.5156C239.625 51.5156 229.928 48.8571 223.104 45.8383L120.155 0.151245L17.2063 45.8383C10.3822 48.8571 0.685249 51.5156 0.685249 51.5156C0.685249 51.5156 -11.5182 214.831 120.155 255.126C251.827 214.831 239.625 51.5156 239.625 51.5156ZM120.155 243.207C120.155 243.207 10.866 217.155 13.1656 58.1507C20.0297 55.6862 43.4978 46.4497 120.155 12.212C196.813 46.4497 220.281 55.6862 227.145 58.1507C229.445 217.155 120.155 243.207 120.155 243.207Z" fill="#1A1919"/>
</g>
<defs>
<clipPath id="clip0_1_2">
<rect width="240" height="255.322" fill="white"/>
</clipPath>
</defs>
</svg>
